PathFileType	4	(X/Y/Z)	C:\Users\Basilio\Documents\Thesis Gigler\squatting_fais\c3dfiles\058\SLS_back_pre5\markers_experimental.trc
DataRate	CameraRate	NumFrames	NumMarkers	Units	OrigDataRate	OrigDataStartFrame	OrigNumFrames
200.000000	200.000000	4	61	mm	200.000000	722	1156
Frame#	Time	FHD			LBHD			RBHD			C7			T10			CLAV			LSHO			LUUPA			LMUPA			LDUPA			LLEP			LMEP			LUL			LRFIN			RSHO			RUPA1			RMUPA			RDUPA			RLEP			RMEP			RUL			RUFIN			LASI			RASI			USACR			LSACR			RSACR			LTHI1			LTHI2			LTHI3			LTHI4			LLFC			LMFC			LTIB1			LTIB3			LTIB4			LLMAL			LMMAL			LHEE			LMT1			LMT5			RTHI			RTHI2			RTHI3			RTHI4			RLFC			RMFC			RTIB1			RTIB2			RTIB3			RTIB4			RLMAL			RMMAL			RHEE			RMT1			RMT2			RMT5			LTIB2			LMT2			LRAD			RRAD			
		X1	Y1	Z1	X2	Y2	Z2	X3	Y3	Z3	X4	Y4	Z4	X5	Y5	Z5	X6	Y6	Z6	X7	Y7	Z7	X8	Y8	Z8	X9	Y9	Z9	X10	Y10	Z10	X11	Y11	Z11	X12	Y12	Z12	X13	Y13	Z13	X14	Y14	Z14	X15	Y15	Z15	X16	Y16	Z16	X17	Y17	Z17	X18	Y18	Z18	X19	Y19	Z19	X20	Y20	Z20	X21	Y21	Z21	X22	Y22	Z22	X23	Y23	Z23	X24	Y24	Z24	X25	Y25	Z25	X26	Y26	Z26	X27	Y27	Z27	X28	Y28	Z28	X29	Y29	Z29	X30	Y30	Z30	X31	Y31	Z31	X32	Y32	Z32	X33	Y33	Z33	X34	Y34	Z34	X35	Y35	Z35	X36	Y36	Z36	X37	Y37	Z37	X38	Y38	Z38	X39	Y39	Z39	X40	Y40	Z40	X41	Y41	Z41	X42	Y42	Z42	X43	Y43	Z43	X44	Y44	Z44	X45	Y45	Z45	X46	Y46	Z46	X47	Y47	Z47	X48	Y48	Z48	X49	Y49	Z49	X50	Y50	Z50	X51	Y51	Z51	X52	Y52	Z52	X53	Y53	Z53	X54	Y54	Z54	X55	Y55	Z55	X56	Y56	Z56	X57	Y57	Z57	X58	Y58	Z58	X59	Y59	Z59	X60	Y60	Z60	X61	Y61	Z61	

723	3.61	-157.9939880371094	1688.089111328125	-620.8701782226564	-314.2073974609376	1640.482421875	-697.4655151367189	-142.7368774414063	1694.690185546875	-763.0502929687501	-337.7468566894532	1496.6318359375	-712.1723632812501	-414.9756774902345	1209.128051757813	-725.2813110351564	-192.8417510986329	1424.83935546875	-693.4429321289064	-193.3567810058594	1488.845458984375	-839.4714965820315	-39.40673828125001	1442.62744140625	-947.4818115234377	-17.83821105957032	1478.698120117188	-918.5113525390627	29.19014358520509	1443.994506835938	-934.7197265625002	103.6354598999024	1450.334594726563	-916.4036254882815	109.7738494873047	1392.6708984375	-884.5047607421877	370.2373657226563	1496.654418945313	-889.2905883789065	461.2466430664064	1506.78466796875	-805.8210449218752	-213.0451202392579	1488.165161132813	-547.7088623046876	-60.87303924560548	1411.807495117188	-437.7307739257814	-40.05901336669923	1451.262329101563	-460.3680725097657	7.630425930023195	1423.94091796875	-439.1052246093751	75.88706970214845	1420.653930664063	-447.5377807617189	86.5480422973633	1363.835205078125	-500.0917358398439	341.3460693359376	1481.205688476563	-447.2586364746095	430.9204711914064	1509.550048828125	-514.7952880859376	-292.3714599609376	961.9670410156252	-850.227478027344	-298.0701599121094	971.639099121094	-611.7731323242189	-458.4949951171876	1100.3232421875	-729.2515258789064	-471.9404602050782	1070.223388671875	-756.6484375000001	-472.9033813476564	1071.853637695313	-698.3848876953126	-337.3038940429688	706.7402343750001	-952.065368652344	-301.6969909667969	628.7429199218751	-958.835876464844	-259.3452453613282	626.5945434570314	-931.456970214844	-329.5069274902344	573.9124145507814	-958.4979248046877	-343.3722229003907	496.1105957031251	-953.3042602539065	-327.3659973144532	461.4086914062501	-827.6482543945315	-431.580291748047	398.5030517578126	-932.3338623046877	-481.4348144531251	411.5143127441407	-959.768981933594	-560.3159790039064	385.0843505859376	-935.1030883789065	-762.0421142578126	412.5843811035157	-927.7366333007815	-735.7734985351564	363.9850463867188	-852.6773071289065	-743.8498535156251	462.5167541503907	-863.3559570312502	-856.1826782226565	272.5706481933594	-850.0067138671877	-890.333190917969	336.6956481933594	-929.6979980468752	-354.3397216796876	783.213317871094	-542.2860717773439	-298.3071289062501	746.8782958984376	-545.3807373046876	-268.0710754394532	757.1350097656251	-548.8043212890626	-295.0639953613282	665.4996337890626	-569.1405029296876	-232.1109771728516	508.7418518066407	-602.0903320312501	-205.2144775390626	517.1578979492189	-731.2926635742189	-230.0365142822266	326.1327209472657	-713.6295166015626	-287.0068054199219	252.7275695800782	-654.2349853515626	-256.9765930175782	241.9328002929688	-690.0732421875001	-280.8046264648438	208.2846832275391	-729.7744140625001	-366.4631042480469	113.2944793701172	-696.5012207031251	-334.3416137695313	141.6564636230469	-782.1950683593752	-437.1076965332032	102.8185958862305	-763.6361694335939	-228.063217163086	60.2070770263672	-774.056579589844	-224.5352172851563	57.43163681030275	-721.7211303710939	-273.1268615722657	25.6884880065918	-671.2257080078126	-486.3666992187501	455.3687438964845	-965.5059814453127	-872.3510742187502	276.4443664550782	-892.372497558594	366.3193664550782	1472.4814453125	-811.3950805664065	nan	nan	nan	
724	3.615	-158.1971588134766	1689.286987304688	-620.9907226562501	-314.1522216796876	1642.155639648438	-697.6093139648439	-143.376449584961	1696.077392578125	-763.0184936523439	-338.0099792480469	1498.024536132813	-712.2494506835939	-415.0056152343751	1210.284423828125	-725.3568725585939	-193.0962829589844	1426.337768554688	-693.5477905273439	-193.4740295410157	1490.165771484375	-839.5437011718752	-39.83397293090821	1444.062866210938	-947.5527954101565	-18.07941818237305	1480.21435546875	-918.6104125976565	28.69868850708009	1445.50732421875	-934.7941894531252	103.5944061279297	1451.76220703125	-916.6062011718752	109.2283782958985	1394.146362304688	-884.5037231445315	369.8937072753907	1498.0263671875	-889.2969360351565	461.2035522460939	1508.045043945313	-805.9497680664065	-213.4839019775391	1489.505126953125	-547.7600097656251	-61.14514160156251	1413.09033203125	-437.8518371582032	-40.4838981628418	1452.53564453125	-460.1519470214845	7.328609943389894	1425.187377929688	-439.0418395996095	75.67856597900392	1421.843872070313	-447.4871520996095	86.30023193359376	1365.061645507813	-500.0263061523439	341.0605773925782	1482.254028320313	-447.3025817871095	430.2966918945314	1510.489379882813	-515.1953735351564	-292.0641174316407	963.3100585937502	-850.082702636719	-298.0908508300782	972.8286132812502	-611.6327514648439	-458.4272460937501	1101.636352539063	-729.3389892578126	-471.8905639648439	1071.490112304688	-756.7072753906251	-472.9205932617189	1072.887573242188	-698.5332031250001	-337.0404052734376	707.9262695312501	-952.1795043945315	-301.4416809082032	629.7528686523439	-958.879333496094	-259.1788024902344	627.7587890625001	-931.5778808593752	-329.3937683105469	575.2557983398439	-958.572692871094	-343.1911315917969	497.4676513671876	-953.347351074219	-327.2049865722657	462.7867736816407	-827.812438964844	-431.7068176269532	399.5934143066407	-932.1201782226565	-481.3295898437501	412.7916870117189	-959.9533691406252	-559.9651489257814	386.348114013672	-935.087829589844	-761.7855224609376	413.6670837402345	-927.7061767578127	-735.3654174804689	364.9016418457032	-852.7321777343752	-743.5558471679689	463.6071777343751	-863.1961669921877	-855.8624267578127	273.6269226074219	-849.8088378906252	-890.1782836914065	337.7634582519532	-929.548522949219	-355.0175170898438	784.001159667969	-542.2834472656251	-298.8128662109376	747.2551269531251	-545.4431152343751	-268.3708190917969	757.8294067382814	-548.8517456054689	-295.8188476562501	666.2639160156251	-569.2649536132814	-233.0277252197266	509.1549682617189	-602.1089477539064	-205.8565673828126	517.6686401367189	-731.4953613281251	-230.7164306640626	326.4223632812501	-713.6226196289064	-287.2544860839844	252.8042602539063	-654.3640136718751	-257.3733215332032	242.5291900634766	-690.3513183593751	-281.1976013183594	209.0144348144532	-729.9664306640626	-366.5061950683594	113.3154754638672	-696.6013183593751	-334.5279846191407	141.6815795898438	-782.3293457031252	-437.1060180664064	102.7274627685547	-763.7200317382814	-228.1466217041016	60.10549545288087	-774.1542968750002	-224.5999450683594	57.38557815551759	-721.7827148437501	-273.1342163085938	25.8240146636963	-671.2572021484376	-486.1922302246095	456.485321044922	-965.5004882812502	-872.072204589844	277.5227661132813	-892.2107543945315	366.1065673828126	1473.721557617188	-811.4378051757815	nan	nan	nan	
725	3.62	-158.5417022705078	1690.72265625	-621.0174560546876	-314.6039123535157	1643.272338867188	-697.5761718750001	-143.5223236083985	1697.612915039063	-762.8457641601564	-338.2062377929688	1499.235473632813	-712.2777099609376	-415.0914001464845	1211.53955078125	-725.3566894531251	-193.5617218017579	1427.71142578125	-693.5726318359376	-193.8530883789063	1491.636596679688	-839.5662841796877	-39.81114578247071	1445.329833984375	-947.6152954101565	-18.23437690734864	1481.55810546875	-918.6961669921877	28.70583724975587	1446.796264648438	-934.855407714844	103.1622848510742	1453.140991210938	-916.4880371093752	109.5726013183594	1395.601684570313	-884.9284667968752	369.7443237304688	1499.542846679688	-889.4731445312502	461.0025024414064	1509.259155273438	-806.0405273437502	-213.4369201660157	1490.901245117188	-547.9252929687501	-61.63734817504884	1414.36376953125	-437.6919555664064	-40.57592010498048	1453.810302734375	-460.2053833007814	6.780601501464846	1426.417114257813	-438.870574951172	75.18686676025392	1422.988037109375	-447.4458312988282	85.85873413085939	1366.439697265625	-500.1279296875001	340.9411315917969	1483.611572265625	-448.5802307128907	429.9720153808595	1512.041137695313	-514.8277587890626	-292.1305541992188	964.565856933594	-850.1292114257815	-297.8246459960938	974.0239257812502	-611.7886352539064	-458.385711669922	1102.682983398438	-729.2963256835939	-471.8717346191407	1072.550048828125	-756.7191162109376	-472.7538452148439	1074.295043945313	-698.5325317382814	-336.9235534667969	709.2562255859376	-952.3377685546877	-301.4514770507813	630.9249267578126	-958.8123779296877	-258.8433532714844	629.3191528320314	-931.760681152344	-329.2082214355469	576.6431274414064	-958.7895507812502	-343.1007385253907	498.8091125488282	-953.4790039062502	-326.9718322753907	464.1624145507814	-827.837585449219	-430.7853088378907	400.9784240722657	-932.7495727539065	-481.1157226562501	414.058319091797	-959.9349365234377	-559.8920898437501	387.5260620117189	-935.1150512695315	-761.4955444335939	414.5355834960939	-927.655212402344	-735.1485595703126	366.1179199218751	-852.5324707031252	-743.4572143554689	464.6000061035157	-863.228698730469	-855.5667724609377	274.5415649414063	-849.5298461914065	-890.017517089844	338.6070251464844	-929.2981567382815	-355.6044006347657	785.0007324218752	-542.4248046875001	-299.3108215332032	748.5256347656251	-545.5198364257814	-268.9656677246094	758.7700195312501	-548.8341674804689	-296.5796508789063	667.3485717773439	-569.3062133789064	-234.2684783935547	509.5508117675782	-602.1492309570314	-207.0374298095704	518.1087036132814	-731.4656372070314	-231.5843811035157	326.6011352539063	-713.6894531250001	-287.6865234375001	252.8831787109376	-654.5520629882814	-257.6387634277344	242.7923126220704	-690.5211181640626	-281.8118286132813	208.9750976562501	-730.0391845703126	-366.5477600097657	113.3016662597657	-696.7467651367189	-334.6961059570313	141.6527709960938	-782.5613403320315	-437.122528076172	102.671859741211	-763.7575073242189	-228.4642486572266	60.79079055786134	-774.3553466796877	-223.0049438476563	58.98619842529298	-722.5830078125001	-273.2522583007813	25.75864601135255	-671.2924804687501	-486.0100402832032	457.7711181640626	-965.6334228515627	-871.8073730468752	278.4011230468751	-891.9404907226565	365.9862670898438	1475.258911132813	-811.4421997070315	nan	nan	nan	
726	3.625	-159.0518188476563	1692.221801757813	-620.7161254882814	-314.8151550292969	1644.757934570313	-697.7473144531251	-143.7490997314453	1699.073364257813	-762.8140258789064	-338.5673522949219	1500.602172851563	-712.3384399414064	-415.3873291015626	1212.775634765625	-725.2255249023439	-193.5572509765626	1429.0810546875	-693.5172119140626	-194.0719299316407	1492.998901367188	-839.595642089844	-40.09249114990235	1446.80126953125	-947.6370239257815	-18.39111518859864	1483.045043945313	-918.7755126953127	28.61461830139161	1448.219970703125	-934.9209594726565	103.3171005249024	1454.689208984375	-916.7625732421877	109.0621490478516	1396.946411132813	-884.606384277344	369.4563598632813	1500.906860351563	-889.4259033203127	460.8963928222657	1510.60546875	-806.1000976562502	-213.9430847167969	1492.2177734375	-547.9280395507814	-61.82958221435548	1415.87841796875	-437.6687622070314	-40.77859497070313	1455.265747070313	-460.0983276367189	6.56672239303589	1427.774780273438	-438.8327026367189	74.87849426269533	1424.389892578125	-447.4472656250001	85.5345916748047	1367.661865234375	-500.0594787597657	340.5606689453126	1484.63818359375	-448.6464233398439	429.6429748535157	1513.51025390625	-514.8476562500001	-291.6920471191407	965.9943847656252	-849.9793701171877	-298.1119079589844	975.4678344726565	-611.6516723632814	-458.3727111816407	1103.970825195313	-729.4307861328126	-471.8416137695314	1074.099365234375	-756.7532348632814	-472.8289489746095	1075.157348632813	-698.6804199218751	-336.6420288085938	710.7481079101564	-952.451599121094	-301.1870727539063	632.6447143554689	-959.1529541015627	-258.4233398437501	630.4907836914064	-931.8372802734377	-328.9911804199219	577.9186401367189	-958.8321533203127	-343.0514526367188	500.1386108398439	-953.4817504882815	-326.8938903808594	465.4375915527345	-827.8208007812502	-431.6027832031251	402.2844238281251	-931.9965820312502	-480.9205322265626	415.0908813476564	-960.057800292969	-559.5002441406251	388.7625732421876	-934.9500732421877	-761.4440307617189	415.6182556152345	-927.555603027344	-734.7201538085939	366.9610290527344	-852.6765747070315	-743.1033935546876	465.5682983398439	-863.1030883789065	-854.9904785156252	275.3876037597657	-849.4631958007815	-889.6069946289065	339.5454406738282	-929.2139892578127	-356.0525207519532	785.8564453125002	-542.5065307617189	-299.9340515136719	749.1569213867189	-545.7127685546876	-269.2460937500001	759.2836303710939	-549.0692138671876	-297.6870117187501	668.1154174804689	-569.5343627929689	-235.6724853515626	510.1460266113282	-602.2548828125001	-208.2381896972657	518.4772338867189	-731.4612426757814	-232.2540130615235	327.0093688964844	-713.7808837890626	-288.2302551269532	252.988021850586	-654.6275634765626	-258.2991638183594	242.9402465820313	-690.6164550781251	-281.9436950683594	209.0319519042969	-730.1408081054689	-366.5928344726563	113.3127365112305	-696.8523559570314	-334.8028564453126	141.6532135009766	-782.7761230468752	-437.1395568847657	102.6849441528321	-763.8132324218751	-228.6047515869141	60.80626296997072	-774.416198730469	-223.0014801025391	59.1249351501465	-722.5748901367189	-273.3509521484376	25.86348724365235	-671.2609863281251	-485.5979614257814	458.8829650878907	-965.512634277344	-871.2701416015627	279.2975158691407	-891.9077758789065	365.7011413574219	1476.562622070313	-811.7134399414065	nan	nan	nan	
